<?xml version="1.0" standalone="no"?>
<!DOCTYPE svg PUBLIC "-//W3C//DTD SVG 20010904//EN"
 "http://www.w3.org/TR/2001/REC-SVG-20010904/DTD/svg10.dtd">
<svg version="1.0" xmlns="http://www.w3.org/2000/svg"
 width="1440.000000pt" height="437.000000pt" viewBox="0 0 1440.000000 437.000000"
 preserveAspectRatio="xMidYMid meet">

<g transform="translate(0.000000,437.000000) scale(0.100000,-0.100000)"
fill="#000000" stroke="none">
<path d="M0 2620 l0 -1750 192 -96 c1235 -618 2585 -869 3979 -739 828 78
1683 287 2574 630 83 32 312 126 510 210 496 210 737 301 1120 425 1157 373
2301 511 3355 405 868 -88 1692 -333 2478 -735 l192 -98 0 1749 0 1749 -7200
0 -7200 0 0 -1750z"/>
</g>
</svg>
